<svg width="268.000000" height="50.000000" viewBox="0 0 268 50" fill="none" xmlns="http://www.w3.org/2000/svg" xmlns:xlink="http://www.w3.org/1999/xlink">
	<desc>
			Created with Pixso.
	</desc>
	<defs/>
	<path id="Vector" d="M107.78 22.99C107.78 15.29 104.37 5.35 90.37 5.35L71.37 5.35L71.37 40.33L90.37 40.33C104.86 40.33 107.78 29.94 107.78 22.99L107.78 22.99ZM84.63 31.59L84.63 13.63L87.31 13.63C90.52 13.63 93.84 14.75 93.84 22.82C93.84 30.89 90.27 31.62 87.31 31.62L84.63 31.59ZM122.99 30.83C122.99 26.34 125.97 23.89 129.66 23.89C130.53 23.91 131.39 24.05 132.23 24.29L132.23 13.8C131.56 13.64 130.89 13.56 130.2 13.55C126.05 13.55 123.38 16.79 122.43 20.09L122.22 20.09L122.22 14.15L110.57 14.15L110.57 40.33L122.99 40.33L122.99 30.83ZM142.99 30.71L132.28 30.71L132.28 40.39L143.07 40.39L143 30.71L142.99 30.71ZM163.88 40.33L169.33 17.55L169.66 17.55L175.39 40.33L189.65 40.33L197.96 5.45L186.08 5.45L181.88 27.74L181.7 27.74L176.32 5.45L163.61 5.45L158.12 27.74L157.92 27.74L153.77 5.45L141.35 5.45L149.4 40.33L163.88 40.33L163.88 40.33ZM230.45 32.08L213.21 32.08L213.21 26.64L229.45 26.64L229.45 18.65L213.21 18.65L213.21 13.6L230.18 13.6L230.18 5.35L199.95 5.35L199.95 40.33L230.52 40.33L230.45 32.08L230.45 32.08ZM267.92 30.96C267.92 25.46 263.56 23.16 260.14 22.65L260.14 22.44C262.08 22.19 263.86 21.24 265.15 19.76C266.45 18.28 267.17 16.38 267.17 14.4C267.17 11.15 265.19 5.3 254.36 5.3L233.56 5.3L233.56 40.33L253.69 40.33C258.11 40.33 268 39.83 268 30.99L267.92 30.96L267.92 30.96ZM246.13 12.44L249.54 12.44C253.19 12.44 254.24 14.35 254.24 15.81C254.24 16.8 253.79 19.17 249.24 19.17L246.13 19.17L246.13 12.44L246.13 12.44ZM246.13 33.23L246.13 26.09L249.19 26.09C250.31 26.09 254.45 26.09 254.45 29.63C254.45 30.89 253.74 33.23 249.48 33.23L246.13 33.23ZM22.87 15.4L32.99 9.7L43.17 15.45C43.42 14.75 43.55 14.01 43.56 13.27C43.56 8.78 38.84 5.1 33.04 5.1C27.24 5.1 22.52 8.76 22.52 13.27C22.52 13.99 22.64 14.72 22.87 15.4L22.87 15.4ZM51.11 21.55L57.5 23.11L56.15 27.39L65.88 22.13L50.18 17.45L51.11 21.55ZM43.56 49.99L58.83 31.3L50.68 26.34L43.56 50L43.56 49.99ZM42.53 6.55L45.45 9.66L53.29 0L42.18 0L46.33 2.58L42.53 6.55L42.53 6.55ZM49.27 14.8L56.23 13.38L57.66 18.48L61.12 7.41L47.21 11.9L49.28 14.8L49.27 14.8ZM7.05 31.29L22.32 49.99L15.22 26.33L7.05 31.29L7.05 31.29ZM8.38 23.11L14.77 21.55L15.68 17.44L0 22.13L9.73 27.39L8.38 23.11L8.38 23.11ZM9.66 13.38L16.61 14.79L18.68 11.9L4.77 7.41L8.23 18.48L9.66 13.38L9.66 13.38ZM23.36 6.55L19.53 2.57L23.76 0L12.65 0L20.49 9.71L23.36 6.55L23.36 6.55ZM27.52 16.05L28.91 21.32L28.98 21.32L30.86 15.71L35.22 15.71L37.2 21.32L37.27 21.32L38.38 16.13L32.99 12.94L27.52 16.05ZM47.67 21.44L41.99 18.16L39.95 24.44L34.88 24.44L32.99 18.68L32.93 18.68L31 24.44L25.91 24.44L23.86 18.17L18.19 21.43C18.19 21.43 16.12 28.82 24 34.89C26 36.61 28.25 38.01 30.67 39.05L30.33 37.99L35.54 37.99L35.19 39.11C37.62 38.09 39.87 36.69 41.86 34.95C49.66 28.75 47.7 21.44 47.7 21.44L47.67 21.44L47.67 21.44ZM36.12 36.18L29.73 36.18L29.04 34.07L36.81 34.07L36.11 36.18L36.12 36.18ZM37.44 32.27L28.49 32.27L27.8 30.16L38.13 30.16L37.44 32.27ZM38.72 28.35L27.19 28.35L26.5 26.24L39.39 26.24L38.72 28.35Z" fill="#69B42E" fill-opacity="1.000000" fill-rule="nonzero"/>
</svg>
