<svg width="28.000000" height="18.000000" viewBox="0 0 28 18" fill="none" xmlns="http://www.w3.org/2000/svg" xmlns:xlink="http://www.w3.org/1999/xlink">
	<desc>
			Created with Pixso.
	</desc>
	<defs/>
	<path id="Vector" d="M4.03 -0.11L26.8 -0.11L26.8 17.53L4.03 17.53L4.03 -0.11Z" fill="#69B42E" fill-opacity="1.000000" fill-rule="evenodd"/>
	<path id="Vector" d="M0 -0.29L0 17.71L28 17.71L28 -0.29L0 -0.29ZM4.11 17.41L4.11 -0.05L26.69 -0.05L26.69 17.41L4.11 17.41Z" fill="#000000" fill-opacity="1.000000" fill-rule="nonzero"/>
	<path id="Vector" d="M0.56 15.72C0.56 14.5 1.43 14.2 2.1 14.2C2.7 14.2 3.6 14.45 3.6 15.72L3.6 17.38L0.56 17.38L0.56 15.72ZM2.84 16.22L2.84 15.99C2.84 15.73 2.76 15.42 2.08 15.42C1.37 15.42 1.28 15.7 1.28 15.99L1.28 16.22L2.84 16.22Z" fill="#FFFFFF" fill-opacity="1.000000" fill-rule="nonzero"/>
	<path id="Vector" d="M1.33 12.83L1.84 12.83L1.84 12.81C1.56 12.73 1.28 12.49 1.28 12.13C1.28 12.08 1.28 12.01 1.3 11.96L2.21 11.96C2.19 12.02 2.17 12.1 2.17 12.18C2.17 12.5 2.38 12.76 2.78 12.76L3.6 12.76L3.6 13.85L1.33 13.85L1.33 12.83Z" fill="#FFFFFF" fill-opacity="1.000000" fill-rule="nonzero"/>
	<path id="Vector" d="M2.77 12.05L2.77 11.11L3.61 11.11L3.61 12.05L2.77 12.05Z" fill="#FFFFFF" fill-opacity="1.000000" fill-rule="nonzero"/>
	<path id="Vector" d="M2.51 9.67L2.51 9.65L0.57 9.17L0.57 8.06L2.51 7.59L2.51 7.58L0.57 7.21L0.57 6.18L3.6 6.9L3.6 8.15L1.62 8.65L1.62 8.66L3.6 9.14L3.6 10.41L0.57 11.11L0.57 10.03L2.51 9.67Z" fill="#FFFFFF" fill-opacity="1.000000" fill-rule="nonzero"/>
	<path id="Vector" d="M0.56 3.39L1.28 3.39L1.28 4.87L1.72 4.87L1.72 3.46L2.41 3.46L2.41 4.87L2.89 4.87L2.89 3.36L3.6 3.36L3.6 6.03L0.56 6.03L0.56 3.39Z" fill="#FFFFFF" fill-opacity="1.000000" fill-rule="nonzero"/>
	<path id="Vector" d="M0.56 1.19C0.56 0.24 1.07 0.07 1.35 0.07C1.7 0.07 1.98 0.31 2.05 0.68L2.07 0.68C2.11 0.38 2.31 0 2.79 0C3.56 0 3.6 0.86 3.6 1.25L3.6 3.01L0.56 3.01L0.56 1.19ZM1.77 1.91L1.77 1.64C1.77 1.24 1.56 1.2 1.47 1.2C1.34 1.2 1.18 1.29 1.18 1.61L1.18 1.91L1.77 1.91ZM2.99 1.91L2.99 1.62C2.99 1.24 2.78 1.18 2.67 1.18C2.37 1.18 2.37 1.54 2.37 1.64L2.37 1.91L2.99 1.91Z" fill="#FFFFFF" fill-opacity="1.000000" fill-rule="nonzero"/>
	<path id="Vector" d="M10.63 7.8L15.4 5.17L20.17 7.8C20.17 7.8 20.81 10.07 18.28 11.96C15.76 13.85 15.05 13.84 12.51 11.96C9.96 10.08 10.63 7.8 10.63 7.8Z" fill="#000000" fill-opacity="1.000000" fill-rule="nonzero"/>
	<path id="Vector" d="M15.38 4.17L18.67 5.95C18.75 5.73 18.79 5.51 18.79 5.27C18.79 3.88 17.27 2.75 15.39 2.75C13.52 2.75 12 3.88 12 5.27C12 5.5 12.04 5.72 12.11 5.93L15.38 4.17Z" fill="#000000" fill-opacity="1.000000" fill-rule="nonzero"/>
	<path id="Vector" d="M21.12 9.31L23.75 10.85L18.82 16.63L21.12 9.31Z" fill="#000000" fill-opacity="1.000000" fill-rule="nonzero"/>
	<path id="Vector" d="M21.26 7.84L20.96 6.57L26.04 8.01L22.89 9.64L23.32 8.32L21.26 7.84Z" fill="#000000" fill-opacity="1.000000" fill-rule="nonzero"/>
	<path id="Vector" d="M20.67 5.75L20 4.85L24.49 3.46L23.38 6.88L22.91 5.31L20.67 5.75Z" fill="#000000" fill-opacity="1.000000" fill-rule="nonzero"/>
	<path id="Vector" d="M19.43 4.16L18.48 3.19L19.72 1.97L18.37 1.15L21.97 1.15L19.43 4.16Z" fill="#000000" fill-opacity="1.000000" fill-rule="nonzero"/>
	<path id="Vector" d="M9.67 9.31L7.04 10.85L11.97 16.63L9.67 9.31Z" fill="#000000" fill-opacity="1.000000" fill-rule="nonzero"/>
	<path id="Vector" d="M9.53 7.84L9.83 6.57L4.75 8.01L7.9 9.64L7.47 8.32L9.53 7.84Z" fill="#000000" fill-opacity="1.000000" fill-rule="nonzero"/>
	<path id="Vector" d="M10.12 5.75L10.79 4.85L6.29 3.46L7.41 6.88L7.88 5.31L10.12 5.75Z" fill="#000000" fill-opacity="1.000000" fill-rule="nonzero"/>
	<path id="Vector" d="M11.36 4.16L12.3 3.19L11.06 1.97L12.42 1.15L8.82 1.15L11.36 4.16Z" fill="#000000" fill-opacity="1.000000" fill-rule="nonzero"/>
	<path id="Vector" d="M14 11.11L16.8 11.11L17.02 10.48L13.78 10.48L14 11.11ZM14.73 13.27C15.19 13.41 15.61 13.41 16.06 13.27L16.22 12.83L14.58 12.83L14.73 13.27ZM14.4 12.29L16.4 12.29L16.62 11.65L14.18 11.65L14.4 12.29ZM13.59 9.93L17.2 9.93L17.42 9.3L13.38 9.3L13.59 9.93ZM17.13 6.13L16.74 7.8L16.72 7.8L16.1 6.11L14.74 6.11L14.15 7.8L14.13 7.8L13.67 6.13L12.51 6.77L13.19 8.76L14.79 8.76L15.39 7.03L15.41 7.03L16.02 8.76L17.6 8.76L18.28 6.76L17.13 6.13Z" fill="#FFFFFF" fill-opacity="1.000000" fill-rule="nonzero"/>
</svg>
